<?xml version="1.0" encoding="utf-8"?>
<svg width="47px" height="36px" viewBox="0 0 47 36" version="1.1" xmlns:xlink="http://www.w3.org/1999/xlink" xmlns="http://www.w3.org/2000/svg">
  <g id="8666257_discord_icon">
    <path d="M39.7501 3.04046C39.7371 3.01501 39.7155 2.99507 39.6892 2.98421C36.6495 1.57865 33.4417 0.576373 30.1461 0.00246676C30.0847 -0.00903917 30.0229 0.0204387 29.9928 0.0755919C29.556 0.874576 29.1594 1.69526 28.8047 2.53453C25.2523 1.99106 21.6388 1.99106 18.0863 2.53453C17.7293 1.69313 17.3264 0.87224 16.8795 0.0755919C16.8482 0.0217581 16.7873 -0.00725011 16.7261 0.00246676C13.4302 0.575168 10.2222 1.57752 7.18287 2.98429C7.15685 2.9954 7.1349 3.01438 7.12004 3.03861C1.04196 12.1863 -0.623056 21.1091 0.193744 29.9214C0.198386 29.9651 0.220397 30.0049 0.254741 30.0319C3.79395 32.6729 7.7526 34.6888 11.9618 35.9936C12.0225 36.0119 12.0881 35.9902 12.1263 35.9392C13.0303 34.6995 13.8313 33.3868 14.5212 32.0144C14.5404 31.9763 14.5425 31.9318 14.527 31.892C14.5114 31.8523 14.4798 31.8211 14.44 31.8065C13.1768 31.3194 11.9539 30.7322 10.7827 30.0504C10.7395 30.0248 10.7118 29.9792 10.7089 29.9288C10.7059 29.8784 10.7281 29.8298 10.768 29.7992C11.0137 29.6137 11.2596 29.4206 11.4943 29.2257C11.5368 29.1904 11.5955 29.1824 11.6458 29.2051C19.3185 32.7342 27.6254 32.7342 35.2073 29.2051C35.2577 29.181 35.3175 29.1883 35.3607 29.2239C35.5955 29.4188 35.8413 29.6137 36.0889 29.7992C36.129 29.8294 36.1515 29.8779 36.1489 29.9283C36.1463 29.9787 36.1189 30.0245 36.0759 30.0504C34.9074 30.7379 33.6834 31.3247 32.4169 31.8046C32.3772 31.8199 32.3457 31.8515 32.3305 31.8915C32.3153 31.9316 32.3177 31.9763 32.3372 32.0144C33.0386 33.3792 33.8385 34.6903 34.7303 35.9371C34.7675 35.9895 34.8337 36.0122 34.8948 35.9933C39.1115 34.693 43.0771 32.6769 46.6208 30.0319C46.6557 30.0063 46.6779 29.9667 46.6817 29.9233C47.6596 19.7353 45.0446 10.8857 39.7501 3.04046ZM15.6671 24.5557C13.357 24.5557 11.4536 22.4192 11.4536 19.7954C11.4536 17.1715 13.3201 15.0349 15.6671 15.0349C18.0324 15.0349 19.9174 17.1901 19.8805 19.7952C19.8805 22.4192 18.0139 24.5557 15.6671 24.5557ZM31.2456 24.5557C28.9356 24.5557 27.0322 22.4192 27.0322 19.7954C27.0322 17.1715 28.8987 15.0349 31.2456 15.0349C33.6111 15.0349 35.496 17.1901 35.4591 19.7952C35.4591 22.4192 33.6111 24.5557 31.2456 24.5557Z" id="Shape" fill="#5765F2" stroke="none" />
  </g>
</svg>