<?xml version="1.0" encoding="utf-8"?>
<svg width="35px" height="38px" viewBox="0 0 35 38" version="1.1" xmlns:xlink="http://www.w3.org/1999/xlink" xmlns="http://www.w3.org/2000/svg">
  <path d="M17.2164 37.425L17.2164 37.425L34.4348 27.1438L6.24511 10.2918L17.2184 3.73786L28.1713 10.2812L24.2546 12.6227L17.2245 8.42495L14.0908 10.2918C19.8282 13.7195 25.5656 17.1473 31.3051 20.573L34.4348 18.7041L27.3843 14.4916C29.7331 13.0888 32.0839 11.6861 34.4348 10.2812C28.6953 6.85555 22.9538 3.42778 17.2164 0L0 10.2812L28.1897 27.1332L17.2204 33.6977L6.25939 27.1438L10.1802 24.8023L17.2123 29.0043L20.344 27.1353C14.6046 23.7076 8.86916 20.2798 3.12969 16.852L0 18.723L7.04844 22.9334C4.6976 24.3362 2.3488 25.7389 0 27.1417L0 27.1417C1.04391 27.7661 2.08578 28.3904 3.12969 29.0127C3.13173 29.0127 15.8075 36.5833 17.2164 37.425" id="Fill-1" fill="#356EF3" fill-rule="evenodd" stroke="none" />
</svg>